# xmcd
#
# Track frame offsets:
# 150
# 12205
# 31902
# 45325
# 64877
# 78527
# 96112
# 107242
# 128330
# 148730
# 167905
# 193647
# 209890
# 229177
# 250947
# 269095
# 285210
# 295410
#
# Disc length: 4227 seconds
#
#
# Revision: 1
# Processed by: cddbd v1.5.1PL0 Copyright (c) Steve Scherf et al.
# Submitted via: FreeRIP 2.60 
#
DISCID=0b108112
DTITLE=杜德偉 - 第八號當舖
DYEAR=2003
DGENRE=R&B
TTITLE0=人間旅程 Opening
TTITLE1=原來我Love You So Much
TTITLE2=La Vie En Rose
TTITLE3=You're My Everything
TTITLE4=Hymne A L'Amour
TTITLE5=黑色契約
TTITLE6=原來我Love You So Much演奏曲
TTITLE7=放一顆心
TTITLE8=Nothing's Gonna Change My Love For You
TTITLE9=The One You Love
TTITLE10=Superstar
TTITLE11=惜別(演唱:林葦君)
TTITLE12=阿精
TTITLE13=兩生花(演唱:林葦君)
TTITLE14=天使
TTITLE15=魔鬼
TTITLE16=韓諾
TTITLE17=第八號當舖之人間旅程
EXTD=
EXTT0=
EXTT1=
EXTT2=
EXTT3=
EXTT4=
EXTT5=
EXTT6=
EXTT7=
EXTT8=
EXTT9=
EXTT10=
EXTT11=
EXTT12=
EXTT13=
EXTT14=
EXTT15=
EXTT16=
EXTT17=
PLAYORDER=
